<?xml version="1.0" encoding="UTF-8"?>
<svg width="113px" height="174px" viewBox="0 0 113 174" version="1.1" xmlns="http://www.w3.org/2000/svg" xmlns:xlink="http://www.w3.org/1999/xlink">
    <title>Group 5</title>
    <g id="Page-1" stroke="none" stroke-width="1" fill="none" fill-rule="evenodd">
        <g id="Artboard" transform="translate(-183.000000, -152.000000)" fill="#FFFFFF">
            <g id="Group-5" transform="translate(183.000000, 152.000000)">
                <path d="M103,91.61 L99.51,91.61 C97.26,97.27 91.72,101.28 85.27,101.28 C78.3,101.28 72.41,96.61 70.55,90.25 L62.7,90.25 C61.6,90.25 60.7,91.15 60.7,92.25 L60.7,101.29 C60.7,107.37 65.65,112.33 71.74,112.33 L97.47,112.33 C98.85,112.33 99.97,113.45 99.97,114.83 C99.97,116.21 98.85,117.33 97.47,117.33 L90.34,117.33 C90.15,117.38 89.95,117.4 89.75,117.4 C76.94,117.4 66.51,127.07 66.51,138.97 C66.51,140.35 65.39,141.47 64.01,141.47 C62.63,141.47 61.51,140.35 61.51,138.97 C61.51,130.06 66.2,122.15 73.39,117.33 L71.74,117.33 C62.89,117.33 55.7,110.13 55.7,101.29 L55.7,92.25 C55.7,88.39 58.84,85.25 62.7,85.25 L69.93,85.25 L69.93,8.53 C69.93,3.83 65.3,0 59.6,0 C53.9,0 49.27,3.83 49.27,8.53 L49.27,95.12 C49.27,96.51 48.15,97.62 46.77,97.62 C45.39,97.62 44.27,96.51 44.27,95.12 L44.27,27.58 C44.27,22.88 39.63,19.05 33.93,19.05 C28.24,19.05 23.6,22.88 23.6,27.58 L23.6,96.28 C23.6,97.66 22.48,98.78 21.1,98.78 C19.72,98.78 18.6,97.66 18.6,96.28 L18.6,57.97 C18.6,52.82 14.43,48.64 9.3,48.64 C4.17,48.64 0,52.82 0,57.97 L0,121.35 C0,150.38 25.35,174 56.5,174 C87.65,174 113,150.38 113,121.35 L113,101.65 C113,96.11 108.51,91.61 103,91.61" id="Fill-1"></path>
                <path d="M85.27,96.28 C90.96,96.28 95.6,91.65 95.6,85.95 L95.6,60.47 C95.6,54.77 90.96,50.14 85.27,50.14 C79.57,50.14 74.93,54.77 74.93,60.47 L74.93,85.95 C74.93,91.65 79.57,96.28 85.27,96.28" id="Fill-3"></path>
            </g>
        </g>
    </g>
</svg>